<?xml version="1.0" standalone="no"?>
<!DOCTYPE svg PUBLIC "-//W3C//DTD SVG 20010904//EN"
 "http://www.w3.org/TR/2001/REC-SVG-20010904/DTD/svg10.dtd">
<svg version="1.0" xmlns="http://www.w3.org/2000/svg"
 width="1536.000000pt" height="1024.000000pt" viewBox="0 0 1536.000000 1024.000000"
 preserveAspectRatio="xMidYMid meet">

<g transform="translate(0.000000,1024.000000) scale(0.100000,-0.100000)"
fill="#000000" stroke="none">
<path d="M7312 8880 c2 -176 0 -320 -3 -320 -4 0 -10 8 -13 18 -10 25 -350
589 -365 605 -4 4 -59 4 -122 1 l-114 -7 3 -466 c2 -256 5 -467 6 -467 0 -1
50 1 110 4 l109 5 -5 313 c-2 172 -3 312 -2 311 1 -1 22 -40 46 -87 25 -47 65
-117 89 -157 24 -39 87 -142 139 -228 l95 -156 59 5 c32 4 90 6 129 6 l69 0
-6 308 c-3 169 -9 380 -12 470 l-6 162 -105 0 -105 0 4 -320z"/>
<path d="M7825 9175 c-4 -12 -66 -871 -65 -901 0 -19 7 -22 68 -28 37 -4 88
-9 114 -12 l46 -6 6 54 c12 118 67 880 64 884 -2 1 -55 7 -117 11 -76 6 -114
5 -116 -2z"/>
<path d="M8570 9100 c-196 -41 -333 -229 -347 -475 -15 -258 104 -419 349
-471 197 -42 380 31 454 182 15 30 25 56 23 59 -6 5 -179 35 -206 35 -14 0
-28 -12 -42 -35 -34 -58 -74 -77 -156 -73 -122 5 -175 67 -183 213 -7 150 44
309 121 370 35 27 46 30 105 30 52 0 75 -5 104 -23 44 -28 78 -79 78 -119 0
-29 1 -29 101 -52 56 -12 108 -25 115 -28 32 -12 8 134 -31 197 -52 83 -153
151 -265 178 -68 17 -170 22 -220 12z"/>
<path d="M5960 9086 c-263 -76 -374 -319 -289 -627 27 -99 63 -164 126 -226
71 -70 134 -93 254 -93 259 0 432 128 464 344 l8 48 -54 -7 c-30 -4 -83 -12
-119 -18 l-65 -12 -6 -43 c-7 -55 -34 -92 -89 -119 -100 -51 -199 -14 -254 94
-56 111 -71 328 -29 409 55 108 216 136 291 50 16 -19 32 -40 34 -46 3 -10 30
-8 116 6 62 9 112 22 112 27 0 22 -63 118 -97 147 -64 57 -115 72 -243 76 -75
2 -131 -1 -160 -10z"/>
<path d="M5003 8826 c-166 -55 -302 -106 -303 -112 0 -5 34 -118 76 -250 41
-131 101 -320 131 -419 31 -99 60 -184 63 -188 5 -6 607 175 628 189 3 2 -26
166 -31 170 -1 2 -95 -26 -207 -61 -113 -36 -210 -65 -217 -65 -12 0 -55 128
-57 174 -1 28 0 28 183 87 101 32 186 60 188 63 5 5 -27 148 -36 158 -3 4 -89
-20 -190 -52 -101 -33 -189 -60 -196 -60 -7 0 -23 38 -37 88 l-25 87 191 62
c105 35 196 63 202 63 8 0 2 31 -15 85 -14 47 -30 84 -36 83 -5 0 -146 -46
-312 -102z"/>
<path d="M9438 8548 c-319 -426 -337 -452 -336 -463 1 -9 169 -75 190 -75 7 0
96 121 117 159 7 11 38 3 160 -39 l151 -53 0 -108 0 -108 73 -21 c39 -12 87
-26 105 -32 18 -5 36 -8 39 -5 6 6 -16 796 -25 912 l-7 79 -100 33 c-55 18
-107 32 -117 33 -10 0 -105 -119 -250 -312z m292 -8 c-5 -47 -9 -127 -9 -179
-1 -70 -4 -92 -13 -88 -7 2 -52 17 -101 33 -57 18 -86 33 -83 41 6 16 208 284
211 281 2 -2 -1 -41 -5 -88z"/>
<path d="M4260 8539 c-113 -55 -271 -132 -352 -171 l-147 -71 37 -74 c20 -40
41 -71 47 -69 5 2 63 29 128 60 l118 56 21 -48 c12 -26 73 -157 135 -292 63
-135 124 -266 135 -293 24 -55 18 -55 144 5 l83 40 -36 76 c-19 43 -50 111
-68 152 -18 41 -74 162 -123 268 l-91 194 47 19 c26 11 82 36 124 57 l77 37
-37 77 -37 76 -205 -99z"/>
<path d="M10465 8485 c-59 -21 -131 -103 -151 -172 -33 -114 4 -191 163 -339
117 -109 143 -144 143 -189 0 -40 -50 -85 -95 -85 -44 0 -120 38 -160 80 -25
26 -31 41 -35 96 l-5 65 -98 45 c-54 24 -100 44 -102 44 -2 0 -9 -23 -15 -51
-36 -151 54 -296 243 -389 149 -73 254 -85 352 -41 75 34 135 125 143 217 8
91 -26 146 -183 299 -128 126 -135 134 -135 172 0 85 90 114 183 60 58 -35 81
-70 82 -130 1 -40 5 -50 26 -60 41 -21 150 -67 159 -67 13 0 33 99 27 137 -8
47 -52 130 -91 171 -74 79 -244 152 -349 152 -34 -1 -80 -7 -102 -15z"/>
<path d="M5820 7833 c0 -5 -164 -213 -364 -463 -201 -250 -364 -456 -363 -456
1 -1 40 7 87 18 122 28 346 28 451 0 151 -40 290 -130 375 -242 89 -117 162
-306 180 -460 7 -68 23 -61 -176 -85 -69 -8 -170 -21 -225 -30 -55 -8 -105
-15 -111 -15 -6 0 -14 16 -17 37 -4 20 -19 61 -34 90 -85 169 -331 205 -479
70 -70 -63 -109 -134 -141 -254 -26 -94 -27 -109 -27 -363 -1 -290 11 -395 60
-514 71 -175 203 -266 368 -253 189 14 294 126 304 325 l4 92 -191 0 -191 0 0
245 0 245 435 0 435 0 0 -362 c0 -200 3 -433 7 -519 l6 -156 -79 -83 c-149
-157 -315 -258 -503 -307 -111 -29 -362 -42 -466 -25 -33 5 -61 9 -62 8 -2 -1
5 -11 15 -22 10 -10 186 -226 391 -479 206 -253 381 -468 390 -477 16 -17 27
-5 191 198 96 119 301 372 455 562 l280 345 -71 71 c-187 188 -295 445 -335
795 -18 158 -6 571 19 686 51 235 138 422 287 616 l35 47 -206 248 c-603 726
-727 874 -730 874 -2 0 -4 -3 -4 -7z"/>
<path d="M8388 7543 c-130 -159 -306 -373 -391 -477 l-155 -189 71 -47 c69
-45 170 -142 214 -206 34 -47 88 -163 112 -234 23 -72 54 -211 48 -217 -4 -4
-508 -73 -532 -73 -6 0 -19 24 -28 53 -46 145 -152 227 -295 227 -272 0 -412
-237 -412 -701 0 -423 77 -642 258 -731 60 -29 76 -33 152 -33 226 0 360 129
360 347 l0 68 -190 0 -190 0 0 245 0 245 439 -2 439 -3 6 -514 6 -514 -83 -84
c-180 -186 -397 -308 -599 -338 -27 -4 -48 -10 -48 -12 0 -5 50 -68 107 -133
29 -34 503 -606 676 -817 78 -94 145 -171 148 -170 3 1 52 58 108 127 56 69
110 134 119 145 10 11 65 79 123 150 58 72 217 267 353 435 l248 305 -446 3
-446 2 0 1255 0 1254 285 3 285 3 0 -967 0 -968 403 0 402 1 220 271 c121 150
237 293 257 318 l37 47 -200 244 c-229 279 -269 326 -474 574 -156 188 -198
239 -366 445 -57 69 -144 175 -194 235 -50 61 -176 214 -280 340 -189 230
-292 353 -304 368 -4 4 -113 -122 -243 -280z"/>
<path d="M11962 6628 c-8 -8 -12 -45 -12 -100 0 -68 -3 -88 -14 -88 -7 0 -19
6 -25 13 -6 8 -29 22 -51 32 -32 15 -42 15 -55 5 -35 -29 -15 -57 88 -123 55
-36 57 -38 57 -82 0 -25 -5 -45 -11 -45 -5 0 -37 18 -69 40 -85 58 -106 64
-124 38 -22 -32 -8 -49 104 -122 l100 -66 0 -95 c0 -52 -2 -95 -4 -95 -2 0
-11 -3 -19 -6 -11 -4 -27 15 -57 70 -45 82 -71 106 -96 85 -22 -18 -17 -45 25
-119 38 -66 39 -69 21 -85 -18 -16 -23 -15 -93 25 l-74 43 -8 115 c-8 130 -16
162 -44 162 -37 0 -44 -24 -37 -125 3 -52 4 -95 1 -95 -3 0 -23 9 -45 20 -38
19 -38 21 -45 87 -10 116 -14 131 -36 138 -36 12 -50 -12 -48 -82 1 -35 0 -65
-3 -68 -3 -3 -36 13 -74 35 -38 22 -78 40 -90 40 -30 0 -48 -24 -36 -47 10
-17 134 -93 153 -93 5 0 9 -4 9 -10 0 -5 -6 -10 -13 -10 -7 0 -34 -13 -60 -30
-50 -31 -59 -57 -31 -81 14 -11 28 -7 101 30 l84 43 40 -18 c22 -9 42 -21 45
-25 2 -4 -33 -28 -80 -54 -46 -25 -89 -52 -96 -60 -14 -17 -5 -51 15 -59 13
-5 135 54 220 105 29 18 29 18 95 -18 83 -45 94 -56 85 -82 -5 -18 -15 -21
-92 -23 -69 -2 -88 -6 -97 -20 -8 -13 -8 -23 0 -35 9 -15 28 -19 98 -21 67 -2
86 -6 88 -17 0 -8 1 -20 2 -25 1 -6 -33 -30 -73 -55 l-75 -44 -119 62 c-126
65 -152 68 -152 16 0 -20 14 -31 92 -69 50 -25 90 -49 89 -55 -1 -5 -20 -20
-41 -32 l-39 -21 -78 39 c-85 43 -100 46 -118 24 -20 -24 -2 -51 51 -75 28
-13 52 -27 55 -31 2 -5 -27 -26 -65 -49 -86 -51 -96 -62 -81 -89 15 -30 34
-26 112 19 39 22 73 40 77 40 4 0 7 -33 7 -72 -1 -72 -1 -73 26 -76 36 -4 44
15 53 118 7 83 8 86 41 108 18 12 37 22 41 22 5 0 6 -47 5 -104 -4 -96 -2
-105 16 -110 44 -14 62 17 62 109 0 23 3 69 6 102 l7 61 68 41 c38 22 73 41
78 41 4 0 15 -8 24 -18 15 -17 14 -22 -22 -84 -21 -37 -41 -72 -44 -80 -7 -20
11 -48 32 -48 22 0 38 18 82 93 26 43 39 57 54 55 18 -3 20 -12 22 -93 l3 -90
-106 -69 c-92 -60 -105 -71 -102 -94 6 -50 29 -49 109 5 41 27 80 53 87 57 9
5 12 -6 12 -46 l0 -53 -77 -55 c-60 -42 -78 -61 -78 -79 0 -46 28 -48 89 -8
31 20 58 37 61 37 3 0 5 -40 5 -89 0 -101 11 -123 55 -103 24 11 25 15 25 107
l0 95 54 -36 c64 -42 99 -43 104 -2 3 24 -6 33 -77 80 l-81 53 0 52 0 53 85
-56 c86 -56 116 -62 129 -28 10 27 -10 47 -113 114 l-101 65 2 90 c3 84 4 90
25 93 17 3 30 -11 64 -68 45 -76 61 -90 88 -73 28 17 24 40 -20 113 -39 67
-41 72 -25 88 16 16 21 15 79 -16 103 -55 97 -47 104 -168 7 -137 14 -156 51
-152 l27 3 -2 103 c-1 56 3 102 7 102 5 0 24 -9 43 -20 34 -20 35 -21 41 -110
9 -111 31 -143 72 -103 13 14 15 29 11 80 -2 35 -2 63 1 63 3 0 37 -18 75 -40
73 -42 103 -47 120 -18 15 23 -2 41 -80 84 -34 20 -63 39 -63 42 0 4 20 18 46
31 48 26 67 50 58 75 -11 28 -36 25 -116 -16 l-81 -41 -50 25 -51 25 96 51
c95 52 113 68 102 96 -11 30 -37 24 -147 -34 -63 -33 -120 -60 -127 -60 -7 0
-46 19 -86 42 -64 37 -74 46 -74 70 l0 28 89 0 c68 0 93 4 105 16 38 37 10 64
-68 65 -89 2 -120 11 -124 34 -2 16 13 30 72 63 l75 43 127 -65 c103 -54 130
-64 146 -55 38 20 18 51 -62 96 -137 77 -128 66 -77 93 l44 23 76 -42 c89 -49
130 -52 135 -10 3 22 -5 30 -57 58 -34 18 -61 35 -61 39 0 4 36 27 79 50 46
26 81 52 84 63 5 19 -15 49 -33 49 -10 0 -141 -69 -154 -81 -22 -20 -26 -6
-20 56 5 46 3 69 -6 80 -16 20 -26 19 -49 -4 -14 -14 -20 -40 -25 -102 l-7
-84 -39 -23 c-22 -12 -41 -22 -44 -22 -3 0 -4 48 -3 108 l2 107 -30 0 c-29 0
-30 -2 -37 -55 -4 -30 -10 -89 -13 -131 l-6 -76 -74 -41 c-119 -68 -141 -51
-75 57 48 80 50 114 9 119 -24 3 -32 -6 -73 -77 -38 -67 -51 -81 -71 -81 -25
0 -25 1 -25 94 l0 95 105 68 c101 65 128 95 110 122 -13 22 -55 10 -129 -39
-42 -27 -79 -50 -81 -50 -3 0 -5 24 -5 54 l0 54 80 51 c65 41 80 55 80 75 0
46 -31 49 -95 11 -32 -19 -59 -35 -61 -35 -2 0 -4 36 -4 81 0 44 -5 89 -10
100 -12 21 -40 25 -58 7z m103 -778 c53 -26 85 -80 85 -144 0 -84 -55 -149
-134 -161 -60 -9 -107 8 -150 56 -33 35 -36 45 -36 97 0 73 23 120 75 149 50
28 106 29 160 3z"/>
<path d="M2771 6602 c-18 -14 -21 -30 -23 -105 l-3 -87 -56 35 c-57 35 -82 37
-93 9 -10 -27 12 -51 89 -99 l75 -47 -1 -49 c-1 -27 -6 -49 -10 -49 -5 0 -44
23 -87 50 -82 52 -100 58 -120 38 -27 -27 -12 -48 66 -98 42 -27 93 -60 112
-74 l35 -24 -3 -91 c-3 -88 -4 -91 -27 -91 -19 0 -31 12 -55 58 -44 82 -55 94
-82 90 -36 -5 -33 -39 8 -118 35 -66 37 -71 21 -87 -16 -16 -19 -16 -59 5
-110 57 -105 52 -112 116 -3 32 -6 78 -6 101 0 67 -10 104 -32 111 -40 12 -50
-12 -46 -118 1 -54 2 -98 1 -98 -1 0 -21 9 -43 21 -44 23 -46 28 -55 139 -6
81 -20 106 -54 95 -19 -6 -21 -14 -21 -81 0 -46 -4 -74 -11 -74 -6 0 -41 18
-78 40 -71 42 -90 47 -109 28 -20 -20 -13 -48 16 -64 15 -9 53 -30 86 -48 l58
-33 -63 -35 c-50 -27 -64 -40 -64 -58 0 -12 8 -28 18 -34 15 -9 34 -2 106 36
l88 46 42 -24 c22 -14 41 -27 41 -29 0 -3 -28 -18 -62 -35 -112 -56 -129 -69
-126 -99 5 -43 38 -37 163 29 l116 62 72 -43 c39 -23 74 -43 76 -45 2 -2 1
-14 -3 -28 -6 -24 -9 -25 -99 -28 -87 -3 -92 -4 -95 -26 -6 -43 13 -52 109
-52 86 0 89 -1 89 -23 0 -19 -15 -32 -74 -66 l-75 -42 -122 62 c-128 65 -150
68 -157 21 -3 -23 22 -42 131 -97 31 -16 57 -32 57 -35 0 -3 -19 -17 -42 -31
l-43 -26 -89 45 c-95 49 -121 49 -121 1 0 -19 12 -30 57 -54 31 -17 59 -33 62
-36 3 -3 -28 -25 -69 -49 -77 -46 -96 -70 -75 -95 19 -22 34 -19 111 25 39 22
74 40 77 40 4 0 7 -32 7 -71 0 -58 3 -74 18 -83 27 -17 57 24 57 79 0 23 3 63
6 89 6 42 11 49 45 67 21 10 40 19 42 19 2 0 3 -46 3 -102 -1 -98 0 -103 20
-106 41 -6 51 19 59 147 l7 121 68 40 c38 22 73 40 78 40 5 0 17 -9 27 -20 17
-18 16 -21 -16 -72 -55 -89 -59 -100 -48 -120 19 -36 51 -17 102 60 38 58 52
72 73 72 l26 0 -8 -92 c-4 -51 -10 -94 -13 -96 -7 -2 -203 -132 -210 -138 -9
-8 10 -52 25 -58 10 -4 49 14 104 49 48 30 90 55 94 55 12 0 6 -89 -8 -102 -7
-8 -43 -33 -79 -57 -69 -44 -87 -72 -67 -96 19 -23 42 -18 95 19 27 19 52 33
56 31 3 -3 4 -38 2 -79 -6 -89 6 -119 45 -114 27 3 27 3 30 96 1 50 6 92 10
92 4 0 31 -16 61 -35 43 -27 58 -32 73 -24 13 7 18 19 16 37 -2 21 -20 38 -78
77 l-75 50 -3 53 c-2 28 0 52 3 52 3 0 42 -25 86 -55 44 -30 84 -55 89 -55 16
0 41 32 38 49 -2 9 -51 49 -111 89 l-107 73 0 89 c0 73 3 90 15 92 8 0 20 1
25 2 6 1 28 -30 48 -68 42 -78 63 -97 90 -80 28 18 25 37 -22 119 -34 59 -42
82 -34 92 15 18 17 18 105 -32 l80 -44 6 -111 c7 -124 16 -150 52 -150 33 0
39 29 31 131 -4 43 -5 79 -1 79 3 0 23 -9 44 -19 34 -18 39 -25 45 -67 3 -26
6 -67 6 -91 0 -53 14 -83 39 -83 33 0 44 26 39 95 -5 76 -5 76 89 19 69 -41
106 -42 111 -3 3 24 -6 32 -77 73 -45 26 -81 50 -81 54 0 4 26 21 58 37 45 24
57 35 57 54 0 47 -25 47 -118 0 l-88 -43 -44 24 c-25 13 -41 28 -37 32 4 4 43
27 86 50 88 48 107 68 90 95 -6 10 -17 19 -25 21 -8 1 -59 -23 -114 -53 -55
-31 -110 -58 -121 -61 -13 -3 -45 6 -80 24 -84 43 -94 53 -83 80 8 20 15 22
92 22 94 0 121 12 115 51 -3 23 -7 24 -97 31 -91 6 -110 14 -111 45 0 12 130
93 150 93 6 0 64 -28 130 -62 97 -52 122 -61 137 -52 24 15 23 56 -2 69 -79
41 -165 90 -165 95 0 3 17 15 39 27 l38 22 44 -25 c108 -60 129 -69 147 -58
35 22 21 55 -38 90 -30 18 -54 36 -53 41 1 4 34 26 74 48 82 45 100 65 80 89
-21 25 -47 19 -121 -24 -38 -22 -74 -40 -80 -40 -9 0 -11 17 -8 58 6 64 -7
102 -32 102 -31 0 -42 -28 -48 -121 l-7 -91 -44 -26 -43 -25 7 101 c8 109 1
132 -36 132 -29 0 -38 -33 -46 -159 l-8 -114 -73 -44 c-41 -24 -80 -43 -87
-43 -31 0 -26 40 15 109 42 71 46 103 15 115 -27 10 -44 -5 -87 -80 -33 -57
-48 -74 -63 -72 -18 3 -20 11 -22 98 l-2 95 105 68 c107 69 125 88 107 116
-18 28 -40 23 -118 -28 -42 -28 -81 -51 -86 -51 -5 0 -9 21 -9 48 l1 47 80 49
c75 46 80 52 77 80 -4 43 -36 45 -92 7 -25 -17 -49 -31 -55 -31 -7 0 -11 33
-11 90 0 78 -2 91 -19 100 -14 7 -24 5 -40 -8z m89 -767 c105 -54 117 -209 22
-282 -31 -24 -46 -28 -99 -28 -47 0 -68 5 -90 21 -90 67 -87 220 6 281 40 27
117 31 161 8z"/>
<path d="M4420 6072 c0 -6 -76 -108 -170 -227 -93 -119 -170 -220 -170 -224 0
-5 82 -111 182 -237 99 -126 178 -218 175 -204 -53 215 -61 667 -15 848 6 23
8 46 4 49 -3 4 -6 1 -6 -5z"/>
<path d="M11635 4234 c-27 -35 -51 -68 -52 -72 -2 -7 206 -146 375 -251 72
-44 81 -52 52 -47 -28 5 -360 53 -560 80 -33 5 -38 1 -90 -64 -30 -38 -56 -73
-58 -78 -5 -15 603 -512 612 -501 1 2 26 33 55 68 43 52 50 66 39 76 -36 33
-235 189 -325 255 -56 41 -101 75 -100 76 1 1 36 -4 77 -11 320 -58 534 -95
548 -95 9 0 47 38 84 85 l68 84 -118 81 c-288 200 -502 346 -528 361 l-29 17
-50 -64z"/>
<path d="M3056 4271 c-5 -7 -550 -421 -610 -463 -11 -7 -4 -15 203 -272 74
-92 138 -165 143 -164 15 6 118 83 118 90 0 3 -52 70 -116 147 -63 77 -113
145 -109 151 8 13 126 103 129 99 2 -2 38 -49 81 -104 42 -55 88 -112 101
-128 l24 -28 65 52 c54 44 63 55 52 68 -6 8 -54 62 -104 120 -51 58 -93 108
-93 111 0 13 132 102 139 94 20 -22 173 -220 181 -233 8 -14 23 -4 123 80 5 4
-33 58 -85 120 -51 63 -120 149 -153 191 -57 74 -77 89 -89 69z"/>
<path d="M10935 3810 c-8 -16 -35 -46 -60 -67 -25 -21 -50 -52 -56 -71 -13
-39 -3 -122 14 -122 6 0 35 25 64 56 60 63 90 140 79 200 -8 42 -21 43 -41 4z"/>
<path d="M3217 3520 c-136 -170 -247 -311 -247 -313 0 -13 133 -108 140 -100
17 18 288 375 318 419 12 18 12 17 7 -6 -21 -89 -48 -262 -66 -429 -21 -185
-21 -195 -5 -205 10 -6 44 -30 76 -53 l59 -43 108 143 c226 298 363 482 363
489 0 3 -30 27 -66 53 -56 40 -68 45 -79 34 -26 -27 -265 -364 -281 -397 -8
-19 -17 -32 -19 -30 -2 2 7 76 21 163 14 88 34 217 44 286 24 149 25 175 6
186 -13 7 -32 24 -112 94 -20 19 -22 16 -267 -291z"/>
<path d="M11008 3611 c-67 -22 -147 -80 -184 -132 -141 -204 -39 -513 211
-642 52 -27 71 -31 140 -31 72 -1 88 3 156 36 88 41 157 106 197 183 37 73 43
198 12 289 -43 129 -137 235 -255 287 -70 31 -200 36 -277 10z m183 -161 c90
-46 180 -189 187 -296 5 -77 -14 -122 -70 -160 -50 -35 -119 -37 -172 -5 -131
81 -239 298 -193 387 49 93 150 124 248 74z"/>
<path d="M10450 3239 c-41 -22 -76 -41 -77 -42 -1 -2 20 -41 46 -89 27 -48 76
-137 109 -200 33 -62 90 -169 126 -236 36 -68 66 -126 66 -128 0 -3 7 -16 16
-29 l16 -24 61 31 c34 17 72 37 84 45 l21 14 -45 82 c-97 173 -267 484 -307
559 -17 32 -33 58 -36 58 -3 0 -39 -19 -80 -41z"/>
<path d="M4267 3103 c-99 -210 -287 -617 -284 -618 10 -8 161 -84 163 -82 2 3
71 163 97 224 12 29 28 53 35 53 18 0 112 -49 131 -68 24 -24 18 -79 -22 -184
-20 -53 -37 -101 -37 -106 0 -8 149 -82 165 -82 3 0 5 9 5 20 0 19 25 88 60
165 29 65 34 115 16 159 -9 21 -16 39 -16 41 0 1 18 7 40 14 54 16 106 63 137
125 47 93 14 200 -83 267 -40 27 -291 147 -344 164 -13 4 -27 -16 -63 -92z
m227 -141 c38 -20 78 -49 89 -63 17 -23 18 -31 7 -63 -26 -81 -90 -94 -202
-43 l-58 27 36 77 c20 43 38 84 41 91 7 17 9 16 87 -26z"/>
<path d="M10010 3039 c-231 -82 -298 -330 -157 -581 93 -166 228 -240 382
-208 127 26 226 96 268 189 19 44 37 211 23 211 -4 0 -28 -10 -54 -21 -26 -12
-66 -30 -89 -40 -34 -14 -40 -21 -36 -39 8 -30 -23 -102 -54 -125 -17 -11 -49
-21 -83 -23 -48 -3 -60 0 -95 26 -76 56 -155 224 -155 332 0 49 4 64 26 90 56
66 147 81 203 34 l30 -25 81 23 c47 13 80 28 80 36 0 21 -88 102 -133 122 -56
26 -163 25 -237 -1z"/>
<path d="M4895 2782 c-25 -81 -80 -250 -121 -376 -40 -127 -72 -230 -71 -231
8 -5 503 -165 508 -165 4 0 14 28 24 62 9 34 19 68 22 75 3 7 -2 13 -10 13 -9
0 -86 23 -172 51 -109 35 -155 55 -152 64 3 7 15 45 27 84 11 39 24 71 28 71
4 0 75 -22 157 -50 82 -27 149 -49 150 -47 1 1 12 33 25 71 16 48 19 70 11 75
-6 4 -75 27 -153 51 -79 24 -145 45 -147 46 -6 5 44 154 52 154 5 0 77 -22
160 -50 83 -27 154 -50 158 -50 7 0 42 141 37 145 -5 4 -433 143 -459 149 -26
6 -27 4 -74 -142z"/>
<path d="M9344 2803 l-101 -25 -6 -196 c-4 -107 -7 -298 -7 -423 l0 -228 48
15 c26 8 64 19 85 24 l37 11 0 94 c0 81 2 94 18 99 91 27 197 56 207 56 8 0
34 -33 60 -73 l46 -74 82 19 c45 10 85 20 90 21 4 1 -13 35 -38 75 -66 105
-414 632 -417 631 -2 0 -48 -12 -104 -26z m100 -253 c13 -19 35 -55 51 -80 15
-25 36 -57 46 -72 11 -15 15 -29 11 -32 -9 -5 -122 -37 -142 -39 -13 -2 -15
22 -17 158 -2 151 -2 158 13 130 9 -16 26 -46 38 -65z"/>
<path d="M5506 2687 c-8 -40 -40 -187 -70 -327 -70 -318 -84 -390 -81 -390 2
0 39 -7 82 -15 43 -8 83 -15 89 -15 7 0 23 61 40 148 15 81 29 148 29 150 1 1
62 -9 136 -23 188 -35 174 -38 188 46 6 40 10 73 9 74 -2 1 -64 12 -138 25
-141 23 -160 28 -160 39 0 3 7 44 17 89 l16 84 31 -7 c94 -19 290 -54 293 -52
3 4 32 141 30 144 -1 0 -108 22 -237 48 -129 25 -240 48 -247 50 -7 2 -17 -23
-27 -68z"/>
<path d="M8596 2634 c-93 -19 -171 -36 -174 -38 -3 -4 44 -263 114 -615 13
-69 24 -135 24 -148 0 -13 3 -23 8 -22 4 0 46 8 93 17 l86 17 -31 152 c-16 84
-27 155 -24 158 3 4 39 9 80 12 104 8 120 -7 154 -147 14 -58 29 -111 33 -118
5 -9 28 -7 94 5 74 13 87 18 81 32 -4 9 -20 63 -35 121 -16 58 -34 117 -40
133 -11 27 -65 81 -90 89 -8 3 -3 13 15 31 97 97 60 280 -68 338 -57 26 -122
22 -320 -17z m240 -137 c22 -19 27 -33 28 -69 2 -74 -40 -105 -164 -123 l-46
-7 -17 92 c-10 51 -17 94 -15 96 7 7 124 32 155 33 20 1 42 -8 59 -22z"/>
<path d="M6077 2458 c-46 -309 -86 -603 -83 -606 5 -4 169 -32 173 -29 3 4 24
146 38 255 l7 53 47 -6 c134 -18 146 -37 136 -209 l-7 -122 90 -10 90 -9 8
115 c13 171 7 207 -38 256 -19 22 -19 22 14 45 71 51 98 101 98 187 0 88 -48
157 -134 191 -40 16 -351 71 -402 71 -6 0 -22 -75 -37 -182z m281 1 c82 -15
112 -41 112 -98 0 -28 -8 -48 -27 -72 l-27 -32 -89 6 c-49 3 -91 8 -93 10 -4
4 11 124 22 175 5 25 13 26 102 11z"/>
<path d="M8195 2574 c-49 -8 -153 -20 -230 -27 -77 -7 -139 -17 -138 -23 0 -5
16 -180 33 -389 18 -209 34 -382 36 -384 1 -2 81 4 176 13 95 9 213 20 262 23
l89 6 -7 75 c-3 42 -7 77 -9 78 -1 2 -45 -1 -97 -6 -52 -5 -129 -12 -171 -16
l-77 -7 -8 84 c-11 101 -27 91 178 109 l147 13 -6 71 c-3 39 -7 73 -9 75 -3 4
-239 -16 -295 -25 l-36 -6 -8 77 c-4 42 -5 78 -3 80 2 2 80 13 173 25 93 11
170 22 172 24 2 2 -2 35 -9 75 -14 83 -5 79 -163 55z"/>
<path d="M6776 2472 c-3 -42 -13 -167 -21 -277 -9 -110 -20 -251 -25 -314 -5
-63 -9 -116 -7 -117 1 -1 41 -5 90 -9 87 -7 87 -7 87 17 0 12 9 118 19 233 29
312 45 525 40 529 -2 2 -43 6 -90 10 l-87 6 -6 -78z"/>
<path d="M7341 2539 c-96 -16 -181 -77 -231 -164 -44 -77 -60 -147 -60 -256 0
-116 25 -207 73 -271 67 -88 204 -140 315 -119 63 13 79 21 112 56 l25 27 5
-39 5 -38 67 0 67 0 4 223 3 222 -163 0 -163 0 0 -47 c0 -91 2 -93 87 -93 l76
0 -7 -31 c-18 -94 -68 -139 -152 -139 -102 0 -160 73 -170 216 -4 43 -1 105 5
137 22 122 65 168 161 175 71 5 116 -16 136 -64 l14 -34 86 0 86 0 -7 37 c-21
114 -96 181 -226 203 -72 11 -73 11 -148 -1z"/>
</g>
</svg>
